/* XPM */
static char *exit[] = {
/* columns rows colors chars-per-pixel */
"32 32 2 1 ",
"  c #0D0D0C",
". c white",
/* pixels */
"................................",
"................................",
"................................",
"................................",
"................................",
".                              .",
".                              .",
"................................",
"................................",
".       .  .....   .  .        .",
".       .   ....   .  .        .",
".  ......   ...   ..  ....  ....",
".  .......   .   ...  ....  ....",
".  ........     ....  ....  ....",
".  .........    ....  ....  ....",
".    .......   .....  ....  ....",
".    .......   .....  ....  ....",
".  ........     ....  ....  ....",
".  ........  .   ...  ....  ....",
".  .......  ...   ..  ....  ....",
".       .   ....   .  ....  ....",
".       .  ......  .  ....  ....",
"................................",
"................................",
".                              .",
".                              .",
"................................",
"................................",
"................................",
"................................",
"................................",
"................................"
};
