/* XPM */
static char *grass[] = {
/* columns rows colors chars-per-pixel */
"32 32 114 2 ",
"   c #649500",
".  c #659500",
"X  c #659601",
"o  c #679702",
"O  c #679703",
"+  c #6B9E00",
"@  c #6C9E00",
"#  c #6C9E01",
"$  c #6C9F01",
"%  c #6D9F01",
"&  c #6D9F02",
"*  c #699804",
"=  c #6A9905",
"-  c #6E9B08",
";  c #729D0B",
":  c #6EA002",
">  c #6EA003",
",  c #6FA003",
"<  c #6EA400",
"1  c #6FA401",
"2  c #6FA501",
"3  c #6FA104",
"4  c #70A501",
"5  c #70A502",
"6  c #71A602",
"7  c #71A603",
"8  c #72A603",
"9  c #72A703",
"0  c #70A104",
"q  c #71A105",
"w  c #72A206",
"e  c #73A307",
"r  c #73A704",
"t  c #74A705",
"y  c #74A805",
"u  c #75A806",
"i  c #76A906",
"p  c #77A907",
"a  c #74A308",
"s  c #74A408",
"d  c #75A408",
"f  c #76A409",
"g  c #76A509",
"h  c #7AA70C",
"j  c #78AA08",
"k  c #79AB09",
"l  c #7AAB09",
"z  c #7AAB0A",
"x  c #7BAC0A",
"c  c #7CAC0B",
"v  c #7CAD0C",
"b  c #7DAD0C",
"n  c #7FAE0E",
"m  c #78B104",
"M  c #79B105",
"N  c #79B205",
"B  c #7AB206",
"V  c #7BB404",
"C  c #7CB405",
"Z  c #7CB505",
"A  c #7DB506",
"S  c #7EB507",
"D  c #7FB608",
"F  c #7FB50B",
"G  c #7FAA11",
"H  c #80AF0E",
"J  c #81AF0F",
"K  c #82B60E",
"L  c #82B80B",
"P  c #80AA12",
"I  c #80AB12",
"U  c #81AB12",
"Y  c #81AB13",
"T  c #82AC13",
"R  c #82B010",
"E  c #84B112",
"W  c #85B212",
"Q  c #86B213",
"!  c #88B314",
"~  c #89B415",
"^  c #8AB516",
"/  c #8AB517",
"(  c #8BB517",
")  c #8BB617",
"_  c #8ABA16",
"`  c #8EBD17",
"'  c #89B019",
"]  c #8BB11B",
"[  c #8CB11B",
"{  c #8EB71A",
"}  c #8FB31E",
"|  c #8FB41F",
" . c #8FB81A",
".. c #8EBC1A",
"X. c #90B41F",
"o. c #90B81B",
"O. c #92BA1D",
"+. c #93BA1D",
"@. c #93BA1E",
"#. c #94BB1E",
"$. c #95BB1F",
"%. c #91BE1E",
"&. c #95BC1F",
"*. c #96BC20",
"=. c #95BF21",
"-. c #93C01C",
";. c #99C322",
":. c #9DC526",
">. c #9DC42A",
",. c #A1C72A",
"<. c #A0C52D",
"1. c #A2C82B",
"2. c #A4C82D",
"3. c #A4C92D",
/* pixels */
"*.X.*.$.[ ^ n L < < + + < < + < <   < + < < < < K I Q ] %.*.*.X.",
"*.^ ] ] ^ Y r < m < V < < < < < + < < + <   < r : D t ;.$.t X.*.",
"X.I G j $.I u @ < < <   < + < V < < + < < + < r : y R F & J o.X.",
"| O.c N 4 u 0 r O < +   < + < m < + V + < < + < 6 < : p ; { ;.$.",
" .-.%.p < @ 4 < < < + < < < < < + < < < m V < + <   3 s o.f  .3.",
"W ..u < t 0 < Z V < < < V < < < <   < + < m < V < X : < * 4 j ;.",
"x n u +   < + < m V < V <   + < +   + < < < m + : < r : + < < f ",
"4 * 4 4   + < + < m + V +   < + < < + + < < < < < + < r < : @ r ",
"@ < : < + < < + + + + < < + +   < + < <   + < + < m < < D < r : ",
"< @ < + m V < < < + < < < < + + < < < +   < < < < < V + : < < < ",
"+   + < < m V < V < < + < + < < < V < < < + < + < < < < < + + < ",
"+   < < < < N V < < + < < < + < < < V < < < < + < + < +   + < < ",
"< + + < + < + < < + < < m < < V + < m < V + + < +   + < < < < < ",
"< + < < + < +   < < < < < V + m + < < + < < < m < < + < < V < + ",
"< < V < < V <   + < < + < < < < < + < + < + < < m V < < V m < < ",
"+ < < V < V < < < m < < < + < + + < < < +   < < < m V < m < < + ",
"< + < + < < < + < < V < < < + + < <   < <   < + < + m < + <   < ",
"< + < < <   + < < < m < V < <   + < < < < + < < < < < < < + < < ",
"< < < V < < < + < < < + < < +   < < V < < < < < + < < + < < <   ",
"< V m < < + <   < + < < + < < < < + m V < < V < < +   + < m < < ",
"V m < < + + <   <   + < < < < + < + < m + V + < + <   < < < V < ",
"m < < < < < < + < < < + < V < < < < + + < < < + < + < : + < m < ",
"< + < + < < V < < + < < < m V < < V < < < + < <   + < < X < < + ",
"+ < < < + < m < V < + < < < m + V + < + < < < < < < 7 : r + 2 < ",
"< X <   + 4 < @ + < <   + < < < < < < < < V < + < < Z r < : : y ",
"y p :   < < : < < + < < < + < < +   + < < < N Z < D m y p 3 ; x ",
"x f 4 u r < < < + < V < < < < < + < < < + + 2 B < N 3 e t u ) ] ",
"F ] _ 4 < D < D < + m V < < V < < < < + <   < < < + + p ! 0 j %.",
"^ <.s < z K V < < + < m < V + + < V < < < < < < : 4   4 j :.r } ",
"3.>.n j Y < N : + : < < + < <   < < N V < < D < < 6 * : c $.,.*.",
"<.R T *.r r : < <   < < < < + < + < : m < Z < <   0 I x 0 | <.*.",
"*.*.*.| Q h 3 r : < < V < + + < + < : < + < @ + < r f W O.} *.*."
};
