/* XPM */
static char *hacker[] = {
/* columns rows colors chars-per-pixel */
"32 32 6 1 ",
"  c None",
". c #252B43",
"X c #3A4467",
"o c #F77622",
"O c #5B6986",
"+ c #C0CCDC",
/* pixels */
"               ......           ",
"              ........          ",
"             ..........         ",
"             ..........         ",
"             ..........         ",
"             ..oo..oo..         ",
"             ..........         ",
"             ..........         ",
"             ....oo....         ",
"             ....oo....         ",
"             ..........         ",
"              ........          ",
"              ........          ",
"               oooooo           ",
"              ........          ",
"             ..........         ",
"          ................      ",
"        ....................    ",
"       ......................   ",
"      ........................  ",
"      ........................  ",
"      ......................... ",
"     X......................... ",
"     XXXXXX..............XXXXX. ",
"    XXXXXXXXXXXXXXXXXXXXXXXXXXX ",
"    XXXXXXXXXXXXXXXXXXXXXXXXXXX ",
"    XooooooXXXXXXXXXXXooooooXXX ",
"   ++ooooo+++++++++++++ooooo+++X",
"  ++Ooooooo++O+OOO+OO+oooooo++X ",
" +O++oO+oOoO++O+++O++Oo+o+oO+X  ",
"++++++++++++++++++++++++++++X   ",
"XXXXXXXXXXXXXXXXXXXXXXXXXXXX    "
};
