/* XPM */
static char *_a99950108244b9d80d2255b33cbd2a1ZN7LkfEO2ciNcQdm[] = {
/* columns rows colors chars-per-pixel */
"32 32 13 1 ",
"  c None",
". c #363B3A",
"X c #27611D",
"o c #3A4F3C",
"O c #2F7021",
"+ c #3D4644",
"@ c #3D4745",
"# c #3F4947",
"$ c #404943",
"% c #424E4A",
"& c #438233",
"* c #4E8E3E",
"= c #589747",
/* pixels */
"              oo.               ",
"           X OXXXo .            ",
"         XOO&&O&OOoXo..         ",
"        XO&===*O=*&OXXo.        ",
"      XO&======&*==*&OoXo.      ",
"     XO&&*=====*==**O&O&Xo.     ",
"     **==&*==**&&**&O&&&&OX     ",
"    X&===*&*====*&O&&***&Oo.    ",
"   X&===*&*======*&O&*==*&Xo.   ",
"   O&*=*&&======**&O**=*=*Xo.   ",
"  XOO&*&O*===*=**&*&*=*=**OXo.  ",
"  X&*==*&&*=*=*=&*&O&==**&OX.   ",
" oO&====*O&****&O&&OO&**&OXoX.  ",
"  X*=*=**&*&*&O&OO&***&OOXOXo.. ",
" oO&***&&*===*&O&*==*&&&OOXX..  ",
" oXO&&&&*==*=*=&&====**&&OXoXo. ",
"  oXO&&O*=*=***&**=**&OOO&OXXo. ",
" oXoXOXO&****&*O**&*=**&OOOXo.o ",
" oXXXXOO&&&*&*&&*&*=*=**&OXXoo. ",
" oXOXO&OO&O&*O&O&**==**&&XXoXo. ",
" .oOOXO&OO&O&&OOO&****&&OooXo.. ",
" .oXXOXOXOO&***&&O&&&OOXXXXXo.  ",
"  .oXXoXOXO&&*&&O&OOXOOOXoXo.o. ",
"   .oXXoXXOO&O&O&OXOOXXXooXoo.  ",
"  .o.oXXooXOOXOOOXoXXXXooXoo..  ",
"   ..oooXooXXOXXXXXoooooooo..   ",
"    ..ooo.oooXXXoooXXo.oo...    ",
"     %.o.o.ooooooo.oooo..@.     ",
"       .#.o..ooo..oo...@.       ",
"          .$........@.          ",
"                                ",
"                                "
};
